<svg width="34" height="30" viewBox="0 0 34 30" fill="none" xmlns="http://www.w3.org/2000/svg">
<path d="M28.1233 10.6922L27.7534 11.5407C27.4828 12.1619 26.6236 12.1619 26.3529 11.5407L25.9831 10.6922C25.3239 9.17921 24.1365 7.97462 22.6548 7.31562L21.5152 6.80883C20.8992 6.5348 20.8992 5.63822 21.5152 5.36418L22.591 4.88571C24.1108 4.20977 25.3195 2.9606 25.9674 1.39625L26.3472 0.479296C26.6119 -0.159765 27.4945 -0.159765 27.7591 0.479296L28.1389 1.39625C28.7869 2.9606 29.9956 4.20977 31.5154 4.88571L32.5911 5.36418C33.2073 5.63822 33.2073 6.5348 32.5911 6.80883L31.4517 7.31562C29.97 7.97462 28.7826 9.17921 28.1233 10.6922ZM30.0532 28.5V14.4879C29.1148 14.8196 28.1052 15 27.0532 15C25.4139 15 23.877 14.5617 22.5532 13.796V24H19.5532V13.5H22.0765C19.6515 11.8876 18.0532 9.13046 18.0532 6C18.0532 4.9481 18.2337 3.93834 18.5653 3H1.55322C0.724803 3 0.0532227 3.67158 0.0532227 4.5V28.5C0.0532227 29.3284 0.724803 30 1.55322 30H28.5532C29.3817 30 30.0532 29.3284 30.0532 28.5ZM7.55322 18H10.5532V24H7.55322V18ZM13.5532 9H16.5532V24H13.5532V9Z" fill="#2563EB"/>
</svg>
